M48
;GenerationSoftware,Autodesk,EAGLE,8.6.1*%
;CreationDate,2018-11-15T20:20:07Z*%
FMAT,2
ICI,OFF
METRIC,TZ,000.000
T5C0.350
T4C0.630
T3C0.813
T2C1.016
T1C2.750
%
G90
M71
T1
X6544Y4273
X6544Y62273
X55544Y4273
X55544Y62273
T2
X5272Y42150
X23940Y67608
X5272Y47230
X7812Y24370
X7812Y49770
X5272Y49770
X7812Y52310
X5272Y52310
X5272Y54850
X21400Y67608
X7812Y57390
X5272Y57390
X32131Y14478
X34671Y14478
X7814Y9143
X5272Y9130
X7812Y11670
X5272Y11670
X7812Y14210
X5272Y14210
X7812Y16750
X5272Y16750
X7812Y19290
X5272Y19290
X7812Y21830
X5272Y21830
X7812Y54850
X5272Y24370
X7812Y26910
X5272Y26910
X7812Y29450
X5272Y29450
X7812Y31990
X5272Y31990
X7812Y34530
X5272Y34530
X7812Y37070
X5272Y37070
X7812Y39610
X5272Y39610
X7812Y42150
X7812Y44690
X5272Y44690
X7812Y47230
T3
X39878Y16383
X44958Y16383
X47498Y16383
X50038Y16383
X53097Y49761
X50557Y49761
X50557Y42141
X53097Y42141
X42418Y16383
T4
X56642Y22452
X56642Y27332
X27559Y31469
X27559Y36349
T5
X18796Y23876
X40259Y27940
X49149Y33274
X45720Y27686
X12827Y15367
X38481Y11430
X12827Y18161
X36068Y12319
X41148Y17907
X41656Y20701
X42418Y38608
X43942Y37465
X38608Y31750
X11557Y40132
X11557Y43180
X18923Y38354
X22987Y38481
X21336Y43688
X27559Y43815
X34798Y43688
X35179Y39243
X36068Y10922
X33782Y35306
X10795Y19939
X10287Y8255
X15494Y8255
X20828Y8128
X38735Y8128
X56642Y13335
X57023Y9398
X37338Y22225
X25146Y26924
X40259Y59055
X45720Y46609
X56388Y52705
X35306Y66802
X29337Y66802
X21717Y47498
X21463Y58928
X33782Y58674
X33655Y47117
X28829Y8001
X28702Y12192
X48260Y34290
X46101Y20447
X14986Y59944
X17145Y60325
X17145Y61849
X14986Y58166
X48895Y54102
X50292Y23495
X32893Y20447
X17526Y43688
X54356Y36449
X32385Y25273
X48768Y31115
X48383Y26031
X45085Y23622
X44069Y23368
X51943Y54864
X22733Y14351
X36830Y25273
X25908Y20066
X25908Y23495
X24511Y20066
X24511Y23495
X43815Y34417
X38989Y37719
X43688Y28829
X30226Y21971
X20701Y24638
M30