G04 EAGLE Gerber X2 export*
%TF.Part,Single*%
%TF.FileFunction,Profile,NP*%
%TF.FilePolarity,Positive*%
%TF.GenerationSoftware,Autodesk,EAGLE,8.6.1*%
%TF.CreationDate,2018-11-27T14:45:23Z*%
G75*
%MOMM*%
%FSLAX34Y34*%
%LPD*%
%AMOC8*
5,1,8,0,0,1.08239X$1,22.5*%
G01*
%ADD10C,0.254000*%


D10*
X3810Y2540D02*
X603250Y2540D01*
X603250Y660400D01*
X400050Y660400D01*
X400050Y698500D01*
X3810Y698500D01*
X3810Y2540D01*
X555931Y56480D02*
X556911Y56410D01*
X557883Y56270D01*
X558843Y56061D01*
X559785Y55785D01*
X560705Y55441D01*
X561599Y55033D01*
X562461Y54563D01*
X563287Y54032D01*
X564073Y53443D01*
X564815Y52800D01*
X565510Y52105D01*
X566153Y51363D01*
X566742Y50577D01*
X567273Y49751D01*
X567743Y48889D01*
X568151Y47995D01*
X568495Y47075D01*
X568771Y46133D01*
X568980Y45173D01*
X569120Y44201D01*
X569190Y43221D01*
X569190Y42239D01*
X569120Y41259D01*
X568980Y40287D01*
X568771Y39327D01*
X568495Y38385D01*
X568151Y37465D01*
X567743Y36571D01*
X567273Y35709D01*
X566742Y34883D01*
X566153Y34097D01*
X565510Y33355D01*
X564815Y32660D01*
X564073Y32017D01*
X563287Y31428D01*
X562461Y30897D01*
X561599Y30427D01*
X560705Y30019D01*
X559785Y29675D01*
X558843Y29399D01*
X557883Y29190D01*
X556911Y29050D01*
X555931Y28980D01*
X554949Y28980D01*
X553969Y29050D01*
X552997Y29190D01*
X552037Y29399D01*
X551095Y29675D01*
X550175Y30019D01*
X549281Y30427D01*
X548419Y30897D01*
X547593Y31428D01*
X546807Y32017D01*
X546065Y32660D01*
X545370Y33355D01*
X544727Y34097D01*
X544138Y34883D01*
X543607Y35709D01*
X543137Y36571D01*
X542729Y37465D01*
X542385Y38385D01*
X542109Y39327D01*
X541900Y40287D01*
X541760Y41259D01*
X541690Y42239D01*
X541690Y43221D01*
X541760Y44201D01*
X541900Y45173D01*
X542109Y46133D01*
X542385Y47075D01*
X542729Y47995D01*
X543137Y48889D01*
X543607Y49751D01*
X544138Y50577D01*
X544727Y51363D01*
X545370Y52105D01*
X546065Y52800D01*
X546807Y53443D01*
X547593Y54032D01*
X548419Y54563D01*
X549281Y55033D01*
X550175Y55441D01*
X551095Y55785D01*
X552037Y56061D01*
X552997Y56270D01*
X553969Y56410D01*
X554949Y56480D01*
X555931Y56480D01*
X555931Y636480D02*
X556911Y636410D01*
X557883Y636270D01*
X558843Y636061D01*
X559785Y635785D01*
X560705Y635441D01*
X561599Y635033D01*
X562461Y634563D01*
X563287Y634032D01*
X564073Y633443D01*
X564815Y632800D01*
X565510Y632105D01*
X566153Y631363D01*
X566742Y630577D01*
X567273Y629751D01*
X567743Y628889D01*
X568151Y627995D01*
X568495Y627075D01*
X568771Y626133D01*
X568980Y625173D01*
X569120Y624201D01*
X569190Y623221D01*
X569190Y622239D01*
X569120Y621259D01*
X568980Y620287D01*
X568771Y619327D01*
X568495Y618385D01*
X568151Y617465D01*
X567743Y616571D01*
X567273Y615709D01*
X566742Y614883D01*
X566153Y614097D01*
X565510Y613355D01*
X564815Y612660D01*
X564073Y612017D01*
X563287Y611428D01*
X562461Y610897D01*
X561599Y610427D01*
X560705Y610019D01*
X559785Y609675D01*
X558843Y609399D01*
X557883Y609190D01*
X556911Y609050D01*
X555931Y608980D01*
X554949Y608980D01*
X553969Y609050D01*
X552997Y609190D01*
X552037Y609399D01*
X551095Y609675D01*
X550175Y610019D01*
X549281Y610427D01*
X548419Y610897D01*
X547593Y611428D01*
X546807Y612017D01*
X546065Y612660D01*
X545370Y613355D01*
X544727Y614097D01*
X544138Y614883D01*
X543607Y615709D01*
X543137Y616571D01*
X542729Y617465D01*
X542385Y618385D01*
X542109Y619327D01*
X541900Y620287D01*
X541760Y621259D01*
X541690Y622239D01*
X541690Y623221D01*
X541760Y624201D01*
X541900Y625173D01*
X542109Y626133D01*
X542385Y627075D01*
X542729Y627995D01*
X543137Y628889D01*
X543607Y629751D01*
X544138Y630577D01*
X544727Y631363D01*
X545370Y632105D01*
X546065Y632800D01*
X546807Y633443D01*
X547593Y634032D01*
X548419Y634563D01*
X549281Y635033D01*
X550175Y635441D01*
X551095Y635785D01*
X552037Y636061D01*
X552997Y636270D01*
X553969Y636410D01*
X554949Y636480D01*
X555931Y636480D01*
X65931Y56480D02*
X66911Y56410D01*
X67883Y56270D01*
X68843Y56061D01*
X69785Y55785D01*
X70705Y55441D01*
X71599Y55033D01*
X72461Y54563D01*
X73287Y54032D01*
X74073Y53443D01*
X74815Y52800D01*
X75510Y52105D01*
X76153Y51363D01*
X76742Y50577D01*
X77273Y49751D01*
X77743Y48889D01*
X78151Y47995D01*
X78495Y47075D01*
X78771Y46133D01*
X78980Y45173D01*
X79120Y44201D01*
X79190Y43221D01*
X79190Y42239D01*
X79120Y41259D01*
X78980Y40287D01*
X78771Y39327D01*
X78495Y38385D01*
X78151Y37465D01*
X77743Y36571D01*
X77273Y35709D01*
X76742Y34883D01*
X76153Y34097D01*
X75510Y33355D01*
X74815Y32660D01*
X74073Y32017D01*
X73287Y31428D01*
X72461Y30897D01*
X71599Y30427D01*
X70705Y30019D01*
X69785Y29675D01*
X68843Y29399D01*
X67883Y29190D01*
X66911Y29050D01*
X65931Y28980D01*
X64949Y28980D01*
X63969Y29050D01*
X62997Y29190D01*
X62037Y29399D01*
X61095Y29675D01*
X60175Y30019D01*
X59281Y30427D01*
X58419Y30897D01*
X57593Y31428D01*
X56807Y32017D01*
X56065Y32660D01*
X55370Y33355D01*
X54727Y34097D01*
X54138Y34883D01*
X53607Y35709D01*
X53137Y36571D01*
X52729Y37465D01*
X52385Y38385D01*
X52109Y39327D01*
X51900Y40287D01*
X51760Y41259D01*
X51690Y42239D01*
X51690Y43221D01*
X51760Y44201D01*
X51900Y45173D01*
X52109Y46133D01*
X52385Y47075D01*
X52729Y47995D01*
X53137Y48889D01*
X53607Y49751D01*
X54138Y50577D01*
X54727Y51363D01*
X55370Y52105D01*
X56065Y52800D01*
X56807Y53443D01*
X57593Y54032D01*
X58419Y54563D01*
X59281Y55033D01*
X60175Y55441D01*
X61095Y55785D01*
X62037Y56061D01*
X62997Y56270D01*
X63969Y56410D01*
X64949Y56480D01*
X65931Y56480D01*
X65931Y636480D02*
X66911Y636410D01*
X67883Y636270D01*
X68843Y636061D01*
X69785Y635785D01*
X70705Y635441D01*
X71599Y635033D01*
X72461Y634563D01*
X73287Y634032D01*
X74073Y633443D01*
X74815Y632800D01*
X75510Y632105D01*
X76153Y631363D01*
X76742Y630577D01*
X77273Y629751D01*
X77743Y628889D01*
X78151Y627995D01*
X78495Y627075D01*
X78771Y626133D01*
X78980Y625173D01*
X79120Y624201D01*
X79190Y623221D01*
X79190Y622239D01*
X79120Y621259D01*
X78980Y620287D01*
X78771Y619327D01*
X78495Y618385D01*
X78151Y617465D01*
X77743Y616571D01*
X77273Y615709D01*
X76742Y614883D01*
X76153Y614097D01*
X75510Y613355D01*
X74815Y612660D01*
X74073Y612017D01*
X73287Y611428D01*
X72461Y610897D01*
X71599Y610427D01*
X70705Y610019D01*
X69785Y609675D01*
X68843Y609399D01*
X67883Y609190D01*
X66911Y609050D01*
X65931Y608980D01*
X64949Y608980D01*
X63969Y609050D01*
X62997Y609190D01*
X62037Y609399D01*
X61095Y609675D01*
X60175Y610019D01*
X59281Y610427D01*
X58419Y610897D01*
X57593Y611428D01*
X56807Y612017D01*
X56065Y612660D01*
X55370Y613355D01*
X54727Y614097D01*
X54138Y614883D01*
X53607Y615709D01*
X53137Y616571D01*
X52729Y617465D01*
X52385Y618385D01*
X52109Y619327D01*
X51900Y620287D01*
X51760Y621259D01*
X51690Y622239D01*
X51690Y623221D01*
X51760Y624201D01*
X51900Y625173D01*
X52109Y626133D01*
X52385Y627075D01*
X52729Y627995D01*
X53137Y628889D01*
X53607Y629751D01*
X54138Y630577D01*
X54727Y631363D01*
X55370Y632105D01*
X56065Y632800D01*
X56807Y633443D01*
X57593Y634032D01*
X58419Y634563D01*
X59281Y635033D01*
X60175Y635441D01*
X61095Y635785D01*
X62037Y636061D01*
X62997Y636270D01*
X63969Y636410D01*
X64949Y636480D01*
X65931Y636480D01*
M02*
