G04 EAGLE Gerber X2 export*
%TF.Part,Single*%
%TF.FileFunction,Soldermask,Top,1*%
%TF.FilePolarity,Negative*%
%TF.GenerationSoftware,Autodesk,EAGLE,8.6.1*%
%TF.CreationDate,2018-11-27T14:45:23Z*%
G75*
%MOMM*%
%FSLAX34Y34*%
%LPD*%
%AMOC8*
5,1,8,0,0,1.08239X$1,22.5*%
G01*
%ADD10R,1.152400X1.252400*%
%ADD11R,1.701800X0.711200*%
%ADD12R,1.252400X1.152400*%
%ADD13R,1.625600X0.508000*%
%ADD14C,1.371600*%
%ADD15R,1.352400X0.652400*%
%ADD16R,0.652400X1.352400*%
%ADD17C,1.182400*%
%ADD18R,1.952400X3.352400*%
%ADD19R,3.352400X4.352400*%
%ADD20R,11.152400X7.152400*%
%ADD21C,2.032000*%
%ADD22C,0.345719*%
%ADD23C,2.902400*%
%ADD24R,1.676400X1.676400*%
%ADD25C,1.676400*%
%ADD26R,0.902400X1.852400*%
%ADD27R,2.152400X0.752400*%
%ADD28R,1.852400X0.902400*%
%ADD29C,0.858000*%


D10*
X452290Y553890D03*
X452290Y570890D03*
D11*
X403943Y377700D03*
X403943Y365000D03*
X403943Y352300D03*
X403943Y339600D03*
X457537Y339600D03*
X457537Y352300D03*
X457537Y365000D03*
X457537Y377700D03*
D10*
X568430Y481300D03*
X568430Y498300D03*
D12*
X575040Y562600D03*
X558040Y562600D03*
D13*
X533090Y540500D03*
X533090Y547000D03*
X533090Y553500D03*
X533090Y560000D03*
X474670Y560000D03*
X474670Y553500D03*
X474670Y547000D03*
X474670Y540500D03*
D12*
X496452Y269494D03*
X513452Y269494D03*
D10*
X482854Y221098D03*
X482854Y204098D03*
D12*
X492642Y286766D03*
X509642Y286766D03*
D10*
X499872Y220844D03*
X499872Y203844D03*
D12*
X372990Y307340D03*
X355990Y307340D03*
X372990Y323850D03*
X355990Y323850D03*
X566810Y177800D03*
X583810Y177800D03*
X566810Y320040D03*
X583810Y320040D03*
D14*
X398780Y169926D02*
X398780Y157734D01*
X424180Y157734D02*
X424180Y169926D01*
X449580Y169926D02*
X449580Y157734D01*
X474980Y157734D02*
X474980Y169926D01*
X500380Y169926D02*
X500380Y157734D01*
D15*
X471170Y292100D03*
X471170Y284100D03*
X471170Y276100D03*
X471170Y268100D03*
X471170Y260100D03*
X471170Y252100D03*
X471170Y244100D03*
X471170Y236100D03*
X386170Y292100D03*
X386170Y284100D03*
X386170Y276100D03*
X386170Y268100D03*
X386170Y260100D03*
X386170Y252100D03*
X386170Y244100D03*
X386170Y236100D03*
D16*
X456670Y306600D03*
X456670Y221600D03*
X448670Y221600D03*
X440670Y221600D03*
X432670Y221600D03*
X424670Y221600D03*
X416670Y221600D03*
X408670Y221600D03*
X400670Y221600D03*
X448670Y306600D03*
X440670Y306600D03*
X432670Y306600D03*
X424670Y306600D03*
X416670Y306600D03*
X408670Y306600D03*
X400670Y306600D03*
D17*
X566420Y224520D03*
X566420Y273320D03*
D10*
X529590Y273930D03*
X529590Y256930D03*
D18*
X581720Y364490D03*
X525720Y364490D03*
D10*
X500380Y359800D03*
X500380Y376800D03*
X529590Y222640D03*
X529590Y239640D03*
D19*
X415740Y530860D03*
X122740Y530860D03*
D20*
X269240Y530860D03*
D21*
X239400Y676080D03*
X214000Y676080D03*
D14*
X530970Y503706D02*
X530970Y491514D01*
X505570Y491514D02*
X505570Y503706D01*
X505570Y427506D02*
X505570Y415314D01*
X530970Y415314D02*
X530970Y427506D01*
D22*
X564606Y448574D02*
X572674Y448574D01*
X572674Y440506D01*
X564606Y440506D01*
X564606Y448574D01*
X564606Y443962D02*
X572674Y443962D01*
X572674Y447418D02*
X564606Y447418D01*
X564606Y466114D02*
X572674Y466114D01*
X572674Y458046D01*
X564606Y458046D01*
X564606Y466114D01*
X564606Y461502D02*
X572674Y461502D01*
X572674Y464958D02*
X564606Y464958D01*
D23*
X555440Y42730D03*
X555440Y622730D03*
X65440Y42730D03*
X65440Y622730D03*
D24*
X78140Y91430D03*
D25*
X52722Y91296D03*
X78122Y116696D03*
X52722Y116696D03*
X78122Y142096D03*
X52722Y142096D03*
X78122Y167496D03*
X52722Y167496D03*
X78122Y192896D03*
X52722Y192896D03*
X78122Y218296D03*
X52722Y218296D03*
X78122Y243696D03*
X52722Y243696D03*
X78122Y269096D03*
X52722Y269096D03*
X78122Y294496D03*
X52722Y294496D03*
X78122Y319896D03*
X52722Y319896D03*
X78122Y345296D03*
X52722Y345296D03*
X78122Y370696D03*
X52722Y370696D03*
X78122Y396096D03*
X52722Y396096D03*
X78122Y421496D03*
X52722Y421496D03*
X78122Y446896D03*
X52722Y446896D03*
X78122Y472296D03*
X52722Y472296D03*
X78122Y497696D03*
X52722Y497696D03*
X78122Y523096D03*
X52722Y523096D03*
X78122Y548496D03*
X52722Y548496D03*
X78122Y573896D03*
X52722Y573896D03*
D12*
X482040Y397460D03*
X465040Y397460D03*
D21*
X321310Y144780D03*
X346710Y144780D03*
D10*
X345440Y74050D03*
X345440Y91050D03*
X328930Y91050D03*
X328930Y74050D03*
X312420Y91050D03*
X312420Y74050D03*
D26*
X316230Y224790D03*
X328930Y224790D03*
X341630Y224790D03*
X354330Y224790D03*
X316230Y170790D03*
X328930Y170790D03*
X341630Y170790D03*
X354330Y170790D03*
D27*
X220980Y358140D03*
X220980Y345440D03*
X220980Y332740D03*
X220980Y320040D03*
X220980Y307340D03*
X220980Y294640D03*
X220980Y281940D03*
X220980Y269240D03*
X220980Y256540D03*
X126980Y358140D03*
X126980Y345440D03*
X126980Y332740D03*
X126980Y320040D03*
X126980Y307340D03*
X126980Y294640D03*
X126980Y281940D03*
X126980Y269240D03*
X126980Y256540D03*
D28*
X168910Y200660D03*
X168910Y213360D03*
X168910Y226060D03*
X168910Y238760D03*
X222910Y200660D03*
X222910Y213360D03*
X222910Y226060D03*
X222910Y238760D03*
D10*
X143510Y212970D03*
X143510Y195970D03*
X482600Y376800D03*
X482600Y359800D03*
X107950Y236846D03*
X107950Y219846D03*
X312420Y314570D03*
X312420Y297570D03*
X312420Y363610D03*
X312420Y380610D03*
D17*
X275590Y314690D03*
X275590Y363490D03*
D10*
X408940Y113420D03*
X408940Y130420D03*
D22*
X404906Y76544D02*
X412974Y76544D01*
X412974Y68476D01*
X404906Y68476D01*
X404906Y76544D01*
X404906Y71932D02*
X412974Y71932D01*
X412974Y75388D02*
X404906Y75388D01*
X404906Y94084D02*
X412974Y94084D01*
X412974Y86016D01*
X404906Y86016D01*
X404906Y94084D01*
X404906Y89472D02*
X412974Y89472D01*
X412974Y92928D02*
X404906Y92928D01*
D29*
X424180Y386080D03*
X439420Y374650D03*
X386080Y317500D03*
X115570Y401320D03*
X115570Y431800D03*
X189230Y383540D03*
X229870Y384810D03*
X213360Y436880D03*
X275590Y438150D03*
X347980Y436880D03*
X351790Y392430D03*
X337820Y353060D03*
X107950Y199390D03*
X102870Y82550D03*
X154940Y82550D03*
X208280Y81280D03*
X384810Y114300D03*
X387350Y81280D03*
X566420Y133350D03*
X570230Y93980D03*
X373380Y222250D03*
X251460Y269240D03*
X402590Y590550D03*
X457200Y466090D03*
X563880Y527050D03*
X353060Y668020D03*
X293370Y668020D03*
X217170Y474980D03*
X214630Y589280D03*
X337820Y586740D03*
X336550Y471170D03*
X288290Y80010D03*
X287020Y121920D03*
X482600Y342900D03*
X461010Y204470D03*
X149860Y599440D03*
X171450Y603250D03*
X171450Y618490D03*
X149860Y581660D03*
X488950Y541020D03*
X502920Y234950D03*
X328930Y204470D03*
X175260Y436880D03*
X543560Y364490D03*
X487680Y311150D03*
X483826Y260306D03*
X450850Y236220D03*
X440690Y233680D03*
X519430Y548640D03*
X227330Y143510D03*
X323850Y252730D03*
X368300Y252730D03*
X259080Y200660D03*
X259080Y234950D03*
X245110Y200660D03*
X245110Y234950D03*
X438150Y344170D03*
X389890Y377190D03*
X436880Y288290D03*
X302260Y219710D03*
X207010Y246380D03*
X187960Y238760D03*
X402590Y279400D03*
X491490Y332740D03*
X457200Y276860D03*
X128270Y153670D03*
X360680Y109220D03*
X128270Y181610D03*
X360680Y123190D03*
X411480Y179070D03*
X416560Y207010D03*
M02*
